<svg version="1.2" baseProfile="tiny" xmlns="http://www.w3.org/2000/svg" viewBox="0 0 350 350"><g class="orbit"><path class="path" d="M11.5 175c.2-18.6 16.8-31.8 31.5-40.3 23-13.2 49.8-20 75.8-24.1 32.8-5.1 66.5-5.5 99.5-1.7 27.8 3.2 56.1 9.4 81.3 21.8 15.7 7.8 34.6 19.9 38.3 38.5 3.6 18-10.5 32.7-24.2 41.9-21.1 14.2-46.6 21.6-71.4 26.3-32.4 6.2-65.8 7.5-98.7 4.8-29.2-2.4-58.8-7.9-85.8-19.6-16.8-7.2-37.1-18.4-44.2-36.6-1.3-3.5-2.1-7.2-2.1-11 0-1.9-3-1.9-3 0 .2 18.3 15.1 31.9 29.5 40.8 23.7 14.7 51.9 22 79.2 26.3 34.4 5.4 69.9 5.9 104.5 1.6 28.3-3.5 57.3-10.1 82.7-23.5 15.6-8.2 33.5-21.1 36.7-39.7 3-17.4-9.1-31.9-22.2-41.6-21.4-15.7-48.4-23.7-74.1-28.8-34-6.7-69.2-8.1-103.6-5-29.7 2.6-59.8 8.5-87.1 20.8-17.1 7.7-36.8 19.5-43.6 38.2-1.3 3.6-1.9 7.3-2 11.1 0 1.7 3 1.7 3-.2z"/><circle cx="175" cy="107.5" r="30" ref="planet"  class='planet' /></g></svg>
